<svg width="127" height="123" viewBox="0 0 127 123" fill="none" xmlns="http://www.w3.org/2000/svg">
    <path fill-rule="evenodd" clip-rule="evenodd" d="M20.4404 100.637L19.2355 99.2581L18.6366 37.8329L29.2821 47.4831L29.2819 47.4691L36.4751 53.9959V53.9993L40.6683 57.7993L64.2584 79.1772L90.0145 54.0897L90.0143 54.0652L97.0733 47.2144L99.1695 45.1736L107.733 36.8275L108.348 99.841L101.222 99.9055L100.769 53.3823L97.1676 56.8868L97.1679 56.9078L86.7546 66.9961L86.7549 67.031L64.4389 88.7688L42.5494 68.9336L42.5737 68.8288L28.185 55.9149L25.9188 53.8613L26.3744 100.583L20.4404 100.637ZM63.2346 57.6333L29.0739 26.1269L29.2207 41.1916L36.4216 48.506L36.3616 42.3575L63.6274 67.5053L89.87 39.2759L89.9628 48.7881L97.0162 41.3516L96.8226 21.5012L63.2346 57.6333ZM97.5874 99.9384L90.4621 100.003L90.2276 75.9513L97.2823 68.6402L97.5874 99.9384ZM36.9284 100.488L29.7995 100.552L29.4865 68.4454L36.6711 74.1041L36.9284 100.488Z" fill="#F2BA3F"/>
    <path fill-rule="evenodd" clip-rule="evenodd" d="M20.4404 100.637L19.2355 99.2583L19.2491 100.648L20.4404 100.637Z" fill="#F2BA3F"/>
    <path d="M99.1695 45.1733V45.1803L97.0734 47.2141L99.1695 45.1733Z" fill="#051836"/>
    <path fill-rule="evenodd" clip-rule="evenodd" d="M20.4403 100.637L19.2355 99.2583L19.249 100.648L20.4403 100.637Z" fill="white"/>
    <path d="M19.2355 99.2583L19.249 100.648L20.4403 100.637" stroke="black" stroke-width="0.277795" stroke-miterlimit="22.9256"/>
    <path d="M63.2113 116.146C94.7085 116.146 120.242 91.5398 120.242 61.1863C120.242 30.8327 94.7085 6.22632 63.2113 6.22632C31.7141 6.22632 6.18063 30.8327 6.18063 61.1863C6.18063 91.5398 31.7141 116.146 63.2113 116.146Z" stroke="#F2BA3F" stroke-width="11.7601" stroke-miterlimit="22.9256"/>
    <path fill-rule="evenodd" clip-rule="evenodd" d="M108.335 98.5032L106.736 99.8554L101.222 99.9053L100.769 53.382L97.1677 56.8866L97.1679 56.9075L86.7547 66.9958L86.755 67.0307L64.4389 88.7685L42.5495 68.9334L42.5738 68.8285L28.1851 55.9147L25.9189 53.8611L26.3744 100.583L20.4404 100.637L19.2356 99.2579L18.6366 37.8327L29.2822 47.4829L29.282 47.4689L36.4751 53.9956V53.9991L40.6684 57.7991L64.2585 79.177L90.0145 54.0894L90.0143 54.065L97.0734 47.2141L99.1695 45.1733L107.733 36.8272L108.335 98.5032ZM29.2208 41.1914L29.0739 26.1267L63.2347 57.6331L96.8227 21.501L97.0163 41.3513L89.9629 48.7878L89.8701 39.2757L63.6275 67.5051L36.3616 42.3572L36.4216 48.5058L29.2208 41.1914ZM90.4622 100.003L90.2277 75.951L97.2823 68.64L97.5875 99.9382L90.4622 100.003ZM29.7996 100.552L29.4865 68.4451L36.6712 74.1039L36.9284 100.487L29.7996 100.552Z" fill="#F2BA3F"/>
    <path fill-rule="evenodd" clip-rule="evenodd" d="M108.335 98.5034L106.736 99.8556L108.348 99.841L108.335 98.5034Z" fill="#F2BA3F"/>
    <path fill-rule="evenodd" clip-rule="evenodd" d="M108.437 98.4176L108.234 98.5893L107.634 37.0651L99.2429 45.2429L97.1463 47.2841L90.1172 54.1059L90.1174 54.1302C81.4967 62.5231 72.8758 70.9163 64.2614 79.3152C54.9734 70.8828 45.6714 62.464 36.3731 54.042V54.0385L29.388 47.7006L29.3882 47.7145L18.7414 38.0632L19.3382 99.2576V100.125V100.486H19.1339L18.5328 37.6032L29.1771 47.2523L29.1769 47.2382C31.6445 49.476 34.113 51.7133 36.5781 53.9537V53.9571L64.2564 79.0398L89.9124 54.0497L89.9122 54.0251L97.0013 47.1451L99.0971 45.1047L107.834 36.5903C108.039 57.1994 108.243 77.8085 108.437 98.4176ZM106.854 99.7563L106.618 99.956C104.786 99.9729 102.954 99.989 101.122 100.005L100.669 53.6196L97.2706 56.9273L97.2708 56.9484L86.8575 67.0367L86.8578 67.0715C79.384 74.348 71.9158 81.6302 64.4418 88.9066C57.1085 82.2588 49.767 75.6191 42.4375 68.9673L42.4618 68.8627L28.1158 55.9873L26.0237 54.0914L26.478 100.681H19.1339V100.486H26.2718L25.815 53.6316L28.2557 55.8433L42.6868 68.7953L42.6624 68.9003L64.4369 88.6313L86.6529 66.991L86.6526 66.956L97.0658 56.8677L97.0656 56.8468L100.869 53.1454L101.324 99.8064L106.854 99.7563ZM29.1191 41.1926L28.97 25.8946L63.2296 57.492L96.9227 21.2468C96.9905 27.9606 97.0655 34.6757 97.1191 41.3896L89.8635 49.0392L89.7709 39.5308L63.6334 67.647L36.4665 42.5904L36.5266 48.7557C34.0575 46.2479 31.5909 43.7375 29.1195 41.2319L29.1191 41.1926ZM29.1788 26.3598L29.3229 41.1519L36.3175 48.2567L36.2577 42.1251L63.6224 67.3641L89.9701 39.0215L90.063 48.5374L96.9142 41.3142L96.7235 21.7561L63.2407 57.775L29.1788 26.3598ZM90.3605 100.004L90.1256 75.913C92.5416 73.4037 94.9633 70.899 97.3824 68.3925C97.4874 78.9402 97.5918 89.4882 97.691 100.036C95.2478 100.06 92.8045 100.081 90.3614 100.102L90.3605 100.004ZM90.3307 75.99L90.5638 99.9039L97.4849 99.8411L97.1831 68.8886L90.3307 75.99ZM29.6979 100.553L29.3828 68.2361C31.8468 70.1757 34.3119 72.1145 36.7733 74.057C36.8513 82.8996 36.9397 91.7429 37.032 100.585C34.5877 100.609 32.1432 100.63 29.6989 100.652L29.6979 100.553ZM29.5911 68.6552L29.9012 100.453L36.8258 100.39L36.5699 74.1518L29.5911 68.6552Z" fill="black"/>
    <path fill-rule="evenodd" clip-rule="evenodd" d="M108.437 98.4175L108.234 98.5892L108.245 99.7436L106.854 99.7562L106.618 99.9559C107.229 99.9502 107.84 99.9445 108.451 99.9385C108.446 99.4316 108.441 98.9245 108.437 98.4175Z" fill="black"/>
</svg>
